<svg id="Layer_1" enable-background="new 0 0 510 510" height="512" viewBox="0 0 510 510" width="512" xmlns="http://www.w3.org/2000/svg"><g><path d="m75 60h-30v450h360v-30h-330z"/><path d="m345 120v-120h-240v450h360v-330zm-61 269.5c-66.169 0-120-53.832-120-120 6.592-159.196 233.432-159.15 240 .001 0 66.167-53.832 119.999-120 119.999z"/><path d="m284 179.5c-49.626 0-90 40.374-90 90 4.944 119.397 175.074 119.362 180-.001 0-49.625-40.374-89.999-90-89.999zm42.247 123.767-24.494 17.32-17.753-25.107-17.753 25.106-24.495-17.32 23.877-33.767-23.877-33.766 24.495-17.32 17.753 25.107 17.753-25.105 24.494 17.32-23.876 33.765z"/><path d="m375 8.787v81.213h81.213z"/></g></svg>